<?xml version="1.0" encoding="UTF-8"?>
<svg width="323px" height="45px" viewBox="0 0 323 45" version="1.1" xmlns="http://www.w3.org/2000/svg" xmlns:xlink="http://www.w3.org/1999/xlink">
    <title>pic_well</title>
    <g id="Page-1" stroke="none" stroke-width="1" fill="none" fill-rule="evenodd">
        <g id="pic_well" transform="translate(0.000000, -0.002285)" fill-rule="nonzero">
            <rect id="Rectangle" fill="#808386" x="171.03" y="0.182285065" width="1" height="44.67"></rect>
            <path d="M253.33,38.2122851 L254.74,38.2122851 L254.74,41.8422851 C254.74,42.9422851 255.25,43.3722851 256.03,43.3722851 C256.81,43.3722851 257.32,42.9422851 257.32,41.8422851 L257.32,38.2422851 L258.74,38.2422851 L258.74,42.0022851 C258.783882,42.6640288 258.563028,43.3160924 258.126044,43.8149667 C257.68906,44.313841 257.07176,44.618641 256.41,44.6622851 L256.05,44.6622851 C255.388127,44.7147099 254.732585,44.5016969 254.227951,44.070225 C253.723316,43.6387532 253.411043,43.0242658 253.36,42.3622851 C253.349983,42.2424941 253.349983,42.122076 253.36,42.0022851 L253.33,38.2122851 Z" id="Path" fill="#ED1C24"></path>
            <path d="M262.37,41.1922851 C262.590303,41.2116541 262.809226,41.1423029 262.978193,40.9996193 C263.147161,40.8569358 263.252198,40.6527202 263.27,40.4322851 L263.27,40.3122851 C263.283694,40.1053134 263.214386,39.901411 263.077398,39.7456576 C262.94041,39.5899042 262.747026,39.4951289 262.54,39.4822851 L261.26,39.4822851 L261.26,41.1922851 L262.37,41.1922851 Z M259.87,38.1922851 L262.52,38.1922851 C263.080401,38.1788834 263.6229,38.3900898 264.026718,38.7788822 C264.430536,39.1676746 264.662152,39.7017789 264.67,40.2622851 L264.67,40.2622851 C264.687361,41.0343203 264.242854,41.7423847 263.54,42.0622851 L265.08,44.5022851 L263.51,44.5022851 L262.19,42.3922851 L261.26,42.3922851 L261.26,44.5022851 L259.87,44.5022851 L259.87,38.1922851 Z" id="Shape" fill="#ED1C24"></path>
            <path d="M268.79,38.1122851 C269.707186,38.0908338 270.59167,38.4533274 271.23,39.1122851 L270.29,39.9322851 C269.885584,39.5494451 269.346771,39.341104 268.79,39.3522851 C267.685431,39.3522851 266.79,40.2477156 266.79,41.3522851 C266.79,42.4568546 267.685431,43.3522851 268.79,43.3522851 C269.2936,43.3580551 269.782806,43.1843517 270.17,42.8622851 L270.17,42.0122851 L268.51,42.0122851 L268.51,40.7722851 L271.51,40.7722851 L271.51,43.3322851 C270.865996,44.1557946 269.875372,44.6326248 268.83,44.6222851 C267.962559,44.6574571 267.116736,44.3462422 266.478958,43.7572352 C265.84118,43.1682282 265.463801,42.3497802 265.43,41.4822851 L265.43,41.3622851 C265.435288,40.4923699 265.785941,39.6601868 266.404814,39.0488147 C267.023688,38.4374426 267.860085,38.0969645 268.73,38.1022236 L268.83,38.1022236" id="Path" fill="#ED1C24"></path>
            <polygon id="Path" fill="#ED1C24" points="272.49 38.2122851 276.8 38.2122851 276.8 39.4822851 273.88 39.4822851 273.88 40.6722851 276.61 40.6722851 276.61 41.9122851 273.88 41.9122851 273.88 43.2622851 276.86 43.2622851 276.86 44.5322851 272.49 44.5322851"></polygon>
            <polygon id="Path" fill="#ED1C24" points="277.89 38.2122851 279.14 38.2122851 282.16 42.1322851 282.16 38.2122851 283.51 38.2122851 283.51 44.5322851 282.37 44.5322851 279.25 40.4922851 279.25 44.5322851 277.89 44.5322851"></polygon>
            <polygon id="Path" fill="#ED1C24" points="285.96 39.4822851 284.25 39.4822851 284.25 38.2122851 289.04 38.2122851 289.04 39.4822851 287.35 39.4822851 287.35 44.5322851 285.96 44.5322851"></polygon>
            <path d="M295.59,38.1122835 C296.575048,38.1113458 297.510892,38.5427112 298.15,39.2922851 L297.15,40.1022851 C296.740995,39.6430842 296.154938,39.3809965 295.54,39.3822851 C294.435431,39.3822851 293.54,40.2777156 293.54,41.3822851 C293.54,42.4868546 294.435431,43.3822851 295.54,43.3822851 C296.159165,43.3800515 296.748171,43.1146351 297.16,42.6522851 L298.11,43.4622851 C297.468001,44.2149384 296.529263,44.649607 295.54,44.6522851 C294.672585,44.6847017 293.827872,44.3709073 293.191992,43.7800457 C292.556113,43.1891841 292.181248,42.3697433 292.15,41.5022851 L292.15,41.3922851 C292.155288,40.5223699 292.505941,39.6901868 293.124814,39.0788147 C293.743688,38.4674426 294.580085,38.1269645 295.45,38.1322851 L295.54,38.1322851" id="Path" fill="#ED1C24"></path>
            <path d="M302.62,42.3522851 L301.74,40.0622851 L300.82,42.3522851 L302.62,42.3522851 Z M301.08,38.2122851 L302.32,38.2122851 L304.93,44.5322851 L303.44,44.5322851 L303,43.4722851 L300.37,43.4722851 L300,44.5322851 L298.52,44.5322851 L301.08,38.2122851 Z" id="Shape" fill="#ED1C24"></path>
            <path d="M308.17,41.1922851 C308.392954,41.2116443 308.614416,41.1412355 308.785256,40.9966784 C308.956096,40.8521212 309.06219,40.6453679 309.08,40.4222851 L309.08,40.3122851 C309.090882,40.1026954 309.017918,39.8973897 308.87721,39.7416733 C308.736503,39.5859569 308.539617,39.4926292 308.33,39.4822851 L307.06,39.4822851 L307.06,41.1922851 L308.17,41.1922851 Z M305.68,38.1922851 L308.32,38.1922851 C308.880401,38.1788834 309.4229,38.3900898 309.826718,38.7788822 C310.230536,39.1676746 310.462152,39.7017789 310.47,40.2622851 L310.47,40.2622851 C310.491779,41.0326949 310.050769,41.7414605 309.35,42.0622851 L310.89,44.5022851 L309.31,44.5022851 L308,42.4022851 L307.06,42.4022851 L307.06,44.5122851 L305.68,44.5122851 L305.68,38.1922851 Z" id="Shape" fill="#ED1C24"></path>
            <polygon id="Path" fill="#ED1C24" points="311.62 38.2122851 315.94 38.2122851 315.94 39.4822851 313.02 39.4822851 313.02 40.6722851 315.75 40.6722851 315.75 41.9122851 313.02 41.9122851 313.02 43.2622851 316 43.2622851 316 44.5322851 311.62 44.5322851"></polygon>
            <path d="M283.28,25.0522851 C282.782944,25.0522851 282.38,25.4552288 282.38,25.9522851 L282.38,29.8422851 C282.38,30.3338185 282.778467,30.7322851 283.27,30.7322851 L283.27,30.7322851 C283.760979,30.7270074 284.159237,30.3331746 284.17,29.8422851 L284.17,25.9522851 C284.159403,25.4596851 283.7626,25.0628823 283.27,25.0522851" id="Path" fill="#FAA31F"></path>
            <path d="M283.28,17.4122851 C282.782944,17.4122851 282.38,17.8152288 282.38,18.3122851 L282.38,22.2122851 C282.38,22.7093413 282.782944,23.1122851 283.28,23.1122851 C283.777056,23.1122851 284.18,22.7093413 284.18,22.2122851 L284.18,18.3122851 C284.18,17.8152288 283.777056,17.4122851 283.28,17.4122851" id="Path" fill="#B94298"></path>
            <path d="M281.41,23.1822851 L277.5,23.1822851 C277.0074,23.1928823 276.610597,23.5896851 276.6,24.0822851 C276.6,24.5793413 277.002944,24.9822851 277.5,24.9822851 L281.41,24.9822851 C281.907056,24.9822851 282.31,24.5793413 282.31,24.0822851 C282.299403,23.5896851 281.9026,23.1928823 281.41,23.1822851" id="Path" fill="#8B86C0"></path>
            <path d="M289.05,23.1822851 L285.15,23.1822851 C284.828461,23.1822851 284.531347,23.3538241 284.370577,23.632285 C284.209808,23.910746 284.209808,24.2538241 284.370577,24.5322851 C284.531347,24.8107461 284.828461,24.9822851 285.15,24.9822851 L289.05,24.9822851 C289.547056,24.9822851 289.95,24.5793413 289.95,24.0822851 C289.95,23.5852288 289.547056,23.1822851 289.05,23.1822851" id="Path" fill="#ED1C24"></path>
            <path d="M267.63,15.0122851 L267.63,29.1422851 L256.28,14.3922851 C255.77247,13.7519339 254.997034,13.3826783 254.18,13.3921021 L253.18,13.3921021 L253.18,34.4622852 L254.26,34.4622852 C255.163137,34.4626899 255.90296,33.7450173 255.93,32.8422851 L255.93,32.8422851 L255.93,18.4822851 L267.42,33.4122851 C267.926553,34.053861 268.702631,34.4234217 269.52,34.4122851 L270.4,34.4122851 L270.4,13.3921021 L269.33,13.3921021 C268.407684,13.3921021 267.66,14.1399695 267.66,15.0622851 L267.66,15.0622851" id="Path" fill="#24408B"></path>
            <path d="M321,13.3422851 C320.213094,13.3438191 319.512301,13.8403814 319.25,14.5822851 L314.1,29.0422851 L308.57,14.2422851 C308.449017,13.922296 308.142094,13.7110373 307.8,13.7122851 L307.8,13.7122851 C307.460658,13.7123126 307.157304,13.9238622 307.04,14.2422851 L301.46,29.0422851 L296.32,14.5822851 C296.057699,13.8403814 295.356906,13.3438191 294.57,13.3422851 L293,13.3422851 L300.55,34.3422851 L302.47,34.3422851 L307.37,21.3422851 C307.43881,21.1608697 307.616151,21.0439856 307.81,21.0522851 C308.001128,21.045222 308.174929,21.1624365 308.24,21.3422851 L313.14,34.3422851 L315.07,34.3422851 L322.62,13.3422851 L321,13.3422851 Z" id="Path" fill="#24408B"></path>
            <path d="M240.37,32.6222851 C238.37,32.6222851 237.44,31.4922851 237.44,28.8422851 L237.44,5.92228506 L235.25,5.92228506 L235.25,28.9222851 C235.25,31.0722851 235.8,32.6322851 236.87,33.5622851 C237.863048,34.3434374 239.109019,34.7314685 240.37,34.6522851 C240.945767,34.6511264 241.519506,34.5840224 242.08,34.4522851 L242.15,34.4522851 L242.15,32.4522851 L242,32.4522851 C241.451442,32.5703308 240.890993,32.6240265 240.33,32.6122851" id="Path" fill="#24408B"></path>
            <path d="M251.1,32.4622851 C250.551442,32.5803308 249.990993,32.6340265 249.43,32.6222851 C247.38,32.6222851 246.5,31.4922851 246.5,28.8422851 L246.5,5.92228506 L244.31,5.92228506 L244.31,28.9222851 C244.31,31.0722851 244.86,32.6322851 245.93,33.5622851 C246.923048,34.3434374 248.169019,34.7314685 249.43,34.6522851 C250.005767,34.6511264 250.579506,34.5840224 251.14,34.4522851 L251.21,34.4522851 L251.21,32.4522851 L251.1,32.4622851 Z" id="Path" fill="#24408B"></path>
            <path d="M223.09,13.3422851 C217.3,13.3422851 213.09,17.8822851 213.09,24.1422851 L213.09,24.2622851 C213.018848,27.069289 214.040691,29.7942036 215.94,31.8622851 C217.838267,33.8066948 220.452948,34.8843917 223.17,34.8422851 C226.237068,34.9120388 229.173534,33.6016407 231.17,31.2722851 L231.23,31.2022851 L229.78,29.7922851 L229.78,29.9022851 C228.12557,31.7984918 225.715959,32.8641403 223.2,32.8122851 C221.0908,32.8632511 219.053967,32.0420059 217.57,30.5422851 C216.08706,28.9365756 215.268641,26.8279854 215.28,24.6422851 C215.258192,23.8234618 215.301663,23.0042027 215.41,22.1922851 L215.41,22.1922851 C215.637293,20.3427735 216.54229,18.6432307 217.95,17.4222851 C219.378003,16.1739364 221.213308,15.4910323 223.11,15.5022851 C227.111106,15.5242658 230.344564,18.7711228 230.35,22.7722851 L217.92,22.7722851 C216.870659,22.7722851 216.02,23.622944 216.02,24.6722851 L216.02,24.7622851 L232.56,24.7622851 L232.56,23.6422851 C232.56,17.8022851 228.48,13.4022851 223.05,13.4022851" id="Path" fill="#24408B"></path>
            <path d="M212.27,13.4322851 C211.53647,13.4367112 210.884501,13.900689 210.64,14.5922851 L205.08,30.2222851 L205.08,30.2222851 L199.67,14.8422851 L199.31,13.8422851 C199.212534,13.5337068 198.923546,13.3261242 198.6,13.3321515 C198.281162,13.3337292 197.999096,13.539234 197.9,13.8422851 L197.58,14.8422851 L192.09,30.2522851 L192.09,30.2522851 L186.54,14.6322851 C186.295499,13.940689 185.64353,13.4767112 184.91,13.4722851 L183.84,13.4722851 L191.37,34.4722851 L192.9,34.4722851 L198.22,19.4122851 C198.279815,19.2430758 198.440538,19.1305701 198.62,19.1322851 C198.796767,19.1317871 198.953952,19.2446381 199.01,19.4122851 L204.33,34.4722851 L205.86,34.4722851 L213.39,13.4722851 L212.27,13.4322851 Z" id="Path" fill="#24408B"></path>
            <path d="M283.26,32.2922851 C278.725742,32.2922851 275.05,28.6165429 275.05,24.0822851 C275.05,19.5480273 278.725742,15.8722851 283.26,15.8722851 C287.794258,15.8722851 291.47,19.5480273 291.47,24.0822851 C291.459006,28.611981 287.789696,32.2812906 283.26,32.2922851 M283.26,13.2922851 C277.317416,13.2922851 272.5,18.1097012 272.5,24.0522851 C272.5,29.994869 277.317416,34.8122851 283.26,34.8122851 L283.26,34.8122851 C289.191538,34.8122851 294,30.0038233 294,24.0722851 C294,18.1407469 289.191538,13.3322851 283.26,13.3322851" id="Shape" fill="#24408B"></path>
            <path d="M318.52,40.2322851 C318.682023,40.3327342 318.869382,40.3847784 319.06,40.3822851 C319.37,40.3822851 319.55,40.2222851 319.55,39.9822851 C319.55,39.7422851 319.42,39.6322851 319.11,39.5222851 C318.8,39.4122851 318.49,39.1822851 318.49,38.8522851 C318.497718,38.6726989 318.577274,38.5037459 318.710789,38.3833943 C318.844304,38.2630428 319.020579,38.2013878 319.2,38.2122851 L319.25,38.2122851 C319.427644,38.2062489 319.603686,38.2476707 319.76,38.3322851 L319.68,38.5822851 C319.547416,38.5019839 319.394995,38.4604144 319.24,38.4622851 C318.91,38.4622851 318.79,38.6622851 318.79,38.8222851 C318.79,38.9822851 318.93,39.1422851 319.26,39.2722851 C319.59,39.4022851 319.86,39.6122851 319.86,39.9622851 C319.86,40.3122851 319.59,40.6322851 319.04,40.6322851 C318.830541,40.6337644 318.624121,40.5821594 318.44,40.4822851 L318.52,40.2322851 Z" id="Path" fill="#ED1C24"></path>
            <path d="M322.25,39.5722851 L322.25,38.5722851 L322.25,38.5722851 C322.17,38.8522851 322.08,39.1422851 321.96,39.4622851 L321.54,40.6022851 L321.32,40.6022851 L320.93,39.4822851 C320.828205,39.1834797 320.74143,38.8797664 320.67,38.5722851 L320.67,38.5722851 C320.678039,38.9063956 320.661327,39.2406428 320.62,39.5722851 L320.56,40.5722851 L320.27,40.5722851 L320.43,38.2222851 L320.74,38.2222851 L321.14,39.3622851 C321.23,39.6222851 321.31,39.8822851 321.38,40.1522851 L321.38,40.1522851 C321.44,39.9122851 321.52,39.6522851 321.62,39.3622851 L322.04,38.2222851 L322.43,38.2222851 L322.58,40.5722851 L322.28,40.5722851 L322.25,39.5722851 Z" id="Path" fill="#ED1C24"></path>
            <polygon id="Path" fill="#808386" points="184.39 0.472285065 186.05 0.472285065 188.4 4.31228506 188.4 4.31228506 188.4 0.472285065 189.62 0.472285065 189.62 6.00228506 188 6.00228506 185.59 2.06228506 185.59 2.06228506 185.59 6.00228506 184.37 6.00228506"></polygon>
            <path d="M190.47,4.10228506 C190.471311,3.8203389 190.529116,3.54151494 190.64,3.28228506 C190.747534,3.0449796 190.900398,2.83097058 191.09,2.65228506 C191.283253,2.47403289 191.511397,2.3378275 191.76,2.25228506 C192.02369,2.16051472 192.300798,2.11320359 192.58,2.11228506 C192.862389,2.11408876 193.142644,2.16136071 193.41,2.25228506 C193.655669,2.34403844 193.882671,2.47956246 194.08,2.65228506 C194.269602,2.83097058 194.422466,3.0449796 194.53,3.28228506 C194.743465,3.80811296 194.743465,4.39645717 194.53,4.92228506 C194.42559,5.16137694 194.272305,5.37597549 194.08,5.55228506 C193.882671,5.72500767 193.655669,5.86053169 193.41,5.95228506 C193.143903,6.04810165 192.862804,6.09551596 192.58,6.09228506 C192.300028,6.10130991 192.021118,6.05369108 191.76,5.95228506 C191.511397,5.86674263 191.283253,5.73053724 191.09,5.55228506 C190.897695,5.37597549 190.74441,5.16137694 190.64,4.92228506 C190.529116,4.66305519 190.471311,4.38423123 190.47,4.10228506 L190.47,4.10228506 Z M191.64,4.10228506 C191.630298,4.35907279 191.719822,4.60974007 191.89,4.80228506 C192.276298,5.17053924 192.883702,5.17053924 193.27,4.80228506 C193.60375,4.39905377 193.60375,3.81551636 193.27,3.41228506 C192.883702,3.04403089 192.276298,3.04403089 191.89,3.41228506 C191.72223,3.60228895 191.632874,3.84891315 191.64,4.10228506 Z" id="Shape" fill="#808386"></path>
            <polygon id="Path" fill="#808386" points="194.93 2.20228506 196.18 2.20228506 196.95 4.59228506 196.95 4.59228506 197.6 2.20228506 198.88 2.20228506 199.59 4.59228506 199.59 4.59228506 200.3 2.20228506 201.49 2.20228506 200.14 6.00228506 199 6.00228506 198.21 3.48228506 198.21 3.48228506 197.51 6.00228506 196.33 6.00228506"></polygon>
            <path d="M204.31,2.20228506 L205.39,2.20228506 L205.39,2.70228506 L205.39,2.70228506 C205.448124,2.63085627 205.511644,2.5639933 205.58,2.50228506 C205.655067,2.42176158 205.742915,2.35418598 205.84,2.30228506 L206.17,2.16228506 C206.297693,2.13093654 206.428528,2.11416281 206.56,2.11228506 C206.819649,2.11331903 207.077026,2.16073047 207.32,2.25228506 C207.545039,2.34276505 207.746727,2.48292117 207.91,2.66228506 C208.079162,2.83969559 208.208689,3.0510303 208.29,3.28228506 C208.378395,3.53619475 208.422372,3.8034389 208.42,4.07228506 C208.420091,4.33034439 208.379615,4.586814 208.3,4.83228506 C208.225109,5.0669837 208.11007,5.28691112 207.96,5.48228506 C207.807978,5.66298835 207.625155,5.81534091 207.42,5.93228506 C207.193358,6.04435942 206.942741,6.09928927 206.69,6.09228506 C206.458317,6.10050432 206.227276,6.06313001 206.01,5.98228506 C205.800102,5.90994892 205.618214,5.77353327 205.49,5.59228506 L205.49,5.59228506 L205.49,7.78228506 L204.32,7.78228506 L204.31,2.20228506 Z M205.39,4.10228506 C205.377547,4.35772314 205.463434,4.60822494 205.63,4.80228506 C205.821008,4.97608672 206.071848,5.06925577 206.33,5.06228506 C206.573689,5.08085467 206.814753,5.00169942 207,4.84228506 C207.166566,4.64822494 207.252453,4.39772314 207.24,4.14228506 C207.249882,3.89024827 207.164157,3.64378655 207,3.45228506 C206.817329,3.27059276 206.567471,3.17282187 206.31,3.18228506 C206.048696,3.16743373 205.793649,3.26580911 205.61,3.45228506 C205.445843,3.64378655 205.360118,3.89024827 205.37,4.14228506 L205.39,4.10228506 Z" id="Shape" fill="#808386"></path>
            <path d="M211.51,5.52228506 L211.51,5.52228506 C211.389226,5.72168191 211.206637,5.87618069 210.99,5.96228506 C210.773953,6.04945689 210.542967,6.09361601 210.31,6.09228506 C210.134187,6.09433223 209.959013,6.0707512 209.79,6.02228506 C209.634607,5.97539787 209.488942,5.90087194 209.36,5.80228506 C209.236085,5.70043104 209.134041,5.57457677 209.06,5.43228506 C208.988154,5.2718213 208.950684,5.09809767 208.95,4.92228506 C208.94447,4.55856092 209.111354,4.21366592 209.4,3.99228506 C209.547492,3.89186222 209.709321,3.81431902 209.88,3.76228506 C210.060872,3.71173525 210.24451,3.67166861 210.43,3.64228506 C210.619868,3.63228737 210.810132,3.63228737 211,3.64228506 L211.53,3.64228506 C211.537148,3.44853795 211.451769,3.26293028 211.3,3.14228506 C211.152574,3.02418112 210.968892,2.96059902 210.78,2.96228506 C210.59652,2.9615838 210.415283,3.00261852 210.25,3.08228506 C210.086119,3.1625498 209.939925,3.27474532 209.82,3.41228506 L209.2,2.77228506 C209.415645,2.5639158 209.675385,2.40670464 209.96,2.31228506 C210.252957,2.21232854 210.560461,2.16164109 210.87,2.16228506 C211.159084,2.15006435 211.447783,2.1942184 211.72,2.29228506 C211.930731,2.36302578 212.115368,2.49540721 212.25,2.67228506 C212.387047,2.85255873 212.482651,3.06083827 212.53,3.28228506 C212.582852,3.55903826 212.606316,3.84060116 212.6,4.12228506 L212.6,6.05228506 L211.53,6.05228506 L211.51,5.52228506 Z M211.22,4.34228506 L210.88,4.34228506 C210.751891,4.35173039 210.624787,4.37179937 210.5,4.40228506 C210.385151,4.43480442 210.279163,4.49292647 210.19,4.57228506 C210.098273,4.64351901 210.049252,4.75664537 210.06,4.87228506 C210.05106,5.00268164 210.122321,5.12540873 210.24,5.18228506 C210.350586,5.25290435 210.478795,5.29102036 210.61,5.29228506 C210.725075,5.29109997 210.839456,5.27427934 210.95,5.24228506 C211.0495,5.21370613 211.143958,5.16985034 211.23,5.11228506 C211.311651,5.0541193 211.379856,4.97909384 211.43,4.89228506 C211.482096,4.79723797 211.509597,4.69067221 211.51,4.58228506 L211.51,4.33228506 L211.22,4.34228506 Z" id="Shape" fill="#808386"></path>
            <path d="M213.32,2.20228506 L214.49,2.20228506 L214.49,2.84228506 L214.49,2.84228506 C214.590593,2.63195824 214.741771,2.44985758 214.93,2.31228506 C215.124914,2.19217925 215.351242,2.13298587 215.58,2.14228506 L216,2.14228506 L216,3.21228506 C215.919596,3.18161129 215.835568,3.16144466 215.75,3.15228506 L215.5,3.15228506 C215.31882,3.14216369 215.137683,3.17292275 214.97,3.24228506 C214.845986,3.30136835 214.741775,3.3951585 214.67,3.51228506 C214.598303,3.63549396 214.550786,3.77125725 214.53,3.91228506 C214.520003,4.08213809 214.520003,4.25243204 214.53,4.42228506 L214.53,6.01228506 L213.36,6.01228506 L213.32,2.20228506 Z" id="Path" fill="#808386"></path>
            <path d="M219.08,3.14228506 L218.08,3.14228506 L218.08,4.41228506 C218.069997,4.50535037 218.069997,4.59921976 218.08,4.69228506 C218.088082,4.76962551 218.111904,4.84449429 218.15,4.91228506 C218.188455,4.97976171 218.24826,5.03253144 218.32,5.06228506 C218.415818,5.09822536 218.517705,5.11520666 218.62,5.11228506 L218.86,5.11228506 C218.945621,5.11427229 219.028466,5.08185476 219.09,5.02228506 L219.09,6.02228506 C218.959254,6.06280792 218.825502,6.09290219 218.69,6.11228506 C218.550179,6.12229785 218.409821,6.12229785 218.27,6.11228506 C218.088346,6.1121223 217.907259,6.09200158 217.73,6.05228506 C217.571012,6.01696887 217.421148,5.94884897 217.29,5.85228506 C217.167749,5.75942539 217.068519,5.63966539 217,5.50228506 C216.923293,5.33281471 216.885698,5.14825738 216.89,4.96228506 L216.89,3.16228506 L216.14,3.16228506 L216.14,2.22228506 L216.89,2.22228506 L216.89,1.10228506 L218.06,1.10228506 L218.06,2.22228506 L219.06,2.22228506 L219.08,3.14228506 Z" id="Path" fill="#808386"></path>
            <path d="M221.85,4.10228506 C221.847875,3.82099434 221.902285,3.54214351 222.01,3.28228506 C222.117534,3.0449796 222.270398,2.83097058 222.46,2.65228506 C222.657329,2.47956246 222.884331,2.34403844 223.13,2.25228506 C223.397356,2.16136071 223.677611,2.11408876 223.96,2.11228506 C224.239202,2.11320359 224.51631,2.16051472 224.78,2.25228506 C225.030977,2.3391468 225.26214,2.47512516 225.46,2.65228506 C225.649372,2.82897698 225.799308,3.04365801 225.9,3.28228506 C226.126984,3.80538993 226.126984,4.3991802 225.9,4.92228506 C225.801821,5.16229045 225.651531,5.37747767 225.46,5.55228506 C225.26214,5.72944497 225.030977,5.86542333 224.78,5.95228506 C224.518882,6.05369108 224.239972,6.10130991 223.96,6.09228506 C223.677196,6.09551596 223.396097,6.04810165 223.13,5.95228506 C222.884331,5.86053169 222.657329,5.72500767 222.46,5.55228506 C222.267695,5.37597549 222.11441,5.16137694 222.01,4.92228506 C221.902285,4.66242662 221.847875,4.38357579 221.85,4.10228506 Z M223.02,4.10228506 C223.010298,4.35907279 223.099822,4.60974007 223.27,4.80228506 C223.656298,5.17053924 224.263702,5.17053924 224.65,4.80228506 C224.98375,4.39905377 224.98375,3.81551636 224.65,3.41228506 C224.263702,3.04403089 223.656298,3.04403089 223.27,3.41228506 C223.094968,3.5992276 222.998328,3.84619738 223,4.10228506 L223.02,4.10228506 Z" id="Shape" fill="#808386"></path>
            <path d="M227.16,3.14228506 L226.39,3.14228506 L226.39,2.20228506 L227.16,2.20228506 L227.16,1.53228506 C227.159644,1.33407771 227.179751,1.13636309 227.22,0.942285065 C227.247955,0.76396987 227.320155,0.595504361 227.43,0.452285065 C227.547833,0.304067349 227.703218,0.190118581 227.88,0.122285065 C228.126315,0.0321835499 228.387948,-0.00859033297 228.65,0.00228506487 L229,0.00228506487 C229.116608,-0.00729823171 229.233716,0.0133678747 229.34,0.0622850649 L229.28,1.06228506 L229.09,1.00228506 L228.9,1.00228506 C228.750169,0.990918001 228.60121,1.03347792 228.48,1.12228506 C228.362331,1.26067052 228.307938,1.44198057 228.33,1.62228506 L228.33,2.22228506 L229.2,2.22228506 L229.2,3.16228506 L228.33,3.16228506 L228.33,6.02228506 L227.16,6.02228506 L227.16,3.14228506 Z" id="Path" fill="#808386"></path>
            <path d="M0.13,14.5922851 C0.13,12.5022851 0.06,10.7322851 0,9.23228506 L4.31,9.23228506 L4.54,11.4522851 L4.6,11.4522851 C5.82031367,9.73613865 7.8260698,8.75395788 9.93,8.84228506 C13.42,8.84228506 16.55,11.8422851 16.55,16.9722851 C16.55,22.7822851 12.86,25.5322851 9.3,25.5322851 C7.70709074,25.6176203 6.16906847,24.9377699 5.16,23.7022851 L5.09,23.7022851 L5.09,31.6322851 L0.09,31.6322851 L0.13,14.5922851 Z M5.13,18.3422851 C5.12810197,18.6782062 5.16162051,19.0133917 5.23,19.3422851 C5.5331767,20.7084524 6.74062413,21.6835388 8.14,21.6922851 C10.29,21.6922851 11.57,19.8922851 11.57,17.1822851 C11.57,14.6322851 10.42,12.7122851 8.2,12.7122851 C6.73456893,12.7404257 5.48629322,13.7848164 5.2,15.2222851 C5.13164789,15.5105731 5.09807539,15.806011 5.1,16.1022851 L5.13,18.3422851 Z" id="Shape" fill="#EE3425"></path>
            <path d="M17.44,2.01228506 L22.44,2.01228506 L22.44,11.1622851 L22.51,11.1622851 C23.024786,10.4455102 23.712888,9.87094502 24.51,9.49228506 C25.3058571,9.07296742 26.1904697,8.85009991 27.09,8.84228506 C30.25,8.84228506 32.67,11.0322851 32.67,15.8422851 L32.67,25.1522851 L27.67,25.1522851 L27.67,16.3922851 C27.67,14.3022851 26.95,12.8722851 25.09,12.8722851 C23.9696762,12.8608008 22.9689827,13.5709704 22.61,14.6322851 C22.4785945,14.9764791 22.4206862,15.3443667 22.44,15.7122851 L22.44,25.1822851 L17.44,25.1822851 L17.44,2.01228506 Z" id="Path" fill="#EE3425"></path>
            <path d="M48.43,20.8422851 C49.7536736,21.5723201 51.2295116,21.9832263 52.74,22.0422851 C54.24,22.0422851 54.86,21.5522851 54.86,20.7422851 C54.86,19.9322851 54.37,19.5022851 52.54,18.8722851 C49.21,17.8022851 47.94,15.9722851 47.97,14.1122851 C47.97,11.1122851 50.52,8.85228506 54.47,8.85228506 C56.0118732,8.83496022 57.5384402,9.1593984 58.94,9.80228506 L58.09,13.1922851 C57.0134862,12.6532342 55.8332437,12.3530569 54.63,12.3122851 C53.42,12.3122851 52.74,12.8022851 52.74,13.5922851 C52.74,14.3822851 53.36,14.7622851 55.32,15.4522851 C58.32,16.4522851 59.6,18.0322851 59.63,20.3522851 C59.63,23.3522851 57.31,25.5422851 52.74,25.5422851 C50.952993,25.5750326 49.1839791,25.1807756 47.58,24.3922851 L48.43,20.8422851 Z" id="Path" fill="#EE3425"></path>
            <path d="M63,7.14228506 C62.3101849,7.18043196 61.6335508,6.9424662 61.1194725,6.48092142 C60.6053941,6.01937665 60.2961467,5.3722079 60.26,4.68228506 L60.26,4.49228506 C60.2430966,3.06056483 61.3786884,1.88044002 62.81,1.84228506 L63,1.84228506 C64.4295687,1.75089454 65.6637461,2.83303562 65.76,4.26228506 C65.7647501,4.33554148 65.7647501,4.40902865 65.76,4.48228506 C65.7733886,5.1745366 65.5111671,5.84374118 65.031047,6.34261602 C64.5509269,6.84149085 63.8922564,7.12915052 63.2,7.14228506 L63,7.14228506 L63,7.14228506 Z" id="Path" fill="#EE3425"></path>
            <rect id="Rectangle" fill="#EE3425" x="60.51" y="9.23228506" width="4.96" height="15.97"></rect>
            <path d="M79.28,24.8422851 C77.8645143,25.3847397 76.3551265,25.6397038 74.84,25.5922851 C69.68,25.5922851 66.38,22.4222851 66.38,17.3922851 C66.38,12.7222851 69.58,8.90228506 75.53,8.90228506 C76.8160868,8.89252592 78.0944169,9.1021991 79.31,9.52228506 L78.53,13.2122851 C77.6479752,12.8557153 76.7007819,12.688764 75.75,12.7222851 C74.6503817,12.679106 73.5791894,13.0776332 72.7751881,13.8290363 C71.9711868,14.5804394 71.501205,15.6222619 71.47,16.7222851 C71.4599991,16.8954741 71.4599991,17.069096 71.47,17.2422851 C71.2858653,19.5422665 73.0001557,21.5564458 75.3,21.7422851 C75.4796883,21.7572648 75.6603117,21.7572648 75.84,21.7422851 C76.8160029,21.7713749 77.7871595,21.5941814 78.69,21.2222851 L79.28,24.8422851 Z" id="Path" fill="#EE3425"></path>
            <path d="M82.74,7.14228506 C81.3035865,7.21041597 80.080715,6.10804644 80,4.67228506 L80,4.49228506 C79.989306,3.79489612 80.2581851,3.12223878 80.7466523,2.62437792 C81.2351196,2.12651705 81.9025339,1.84487538 82.6,1.84228506 L82.74,1.84228506 C84.1695687,1.75089454 85.4037461,2.83303562 85.5,4.26228506 C85.5047501,4.33554148 85.5047501,4.40902865 85.5,4.48228506 C85.5395207,5.90887215 84.4258893,7.10268495 83,7.16228506 L82.79,7.16228506 L82.74,7.14228506 Z" id="Path" fill="#EE3425"></path>
            <rect id="Rectangle" fill="#EE3425" x="80.25" y="9.23228506" width="4.96" height="15.97"></rect>
            <path d="M100.52,21.3422851 C100.491676,22.6341241 100.578688,23.9259138 100.78,25.2022851 L96.31,25.2022851 L96.01,23.6022851 L95.92,23.6022851 C94.776227,24.9298209 93.0911572,25.6656592 91.34,25.6022851 C88.639943,25.7441379 86.3352601,23.6721609 86.19,20.9722851 C86.1850167,20.882354 86.1850167,20.7922161 86.19,20.7022851 C86.19,16.5522851 89.92,14.5922851 95.57,14.5922851 L95.57,14.4022851 C95.57,13.5522851 95.11,12.3422851 92.66,12.3422851 C91.1158818,12.3617218 89.6006748,12.7637155 88.25,13.5122851 L87.34,10.3522851 C89.2569965,9.37026255 91.3864206,8.87568664 93.54,8.91228506 C98.87,8.91228506 100.54,12.0522851 100.54,15.8022851 L100.52,21.3422851 Z M95.74,17.6522851 C93.13,17.6522851 91.1,18.2822851 91.1,20.1722851 C91.0313067,21.1524761 91.7698558,22.0029266 92.75,22.0722851 C92.8664425,22.082513 92.9835575,22.082513 93.1,22.0722851 C94.2617799,22.0733988 95.296996,21.3391177 95.68,20.2422851 C95.7482748,19.9675586 95.7818697,19.6853621 95.78,19.4022851 L95.74,17.6522851 Z" id="Shape" fill="#EE3425"></path>
            <path d="M101.74,14.3222851 C101.74,12.3222851 101.67,10.6722851 101.61,9.23228506 L105.92,9.23228506 L106.15,11.4522851 L106.25,11.4522851 C107.331686,9.78857696 109.195986,8.80159463 111.18,8.84228506 C114.44,8.84228506 116.89,11.0322851 116.89,15.7322851 L116.89,25.1722851 L111.89,25.1722851 L111.89,16.3522851 C111.89,14.2922851 111.17,12.8922851 109.38,12.8922851 C108.219398,12.9022555 107.193997,13.6501949 106.83,14.7522851 C106.69886,15.1519477 106.641261,15.5720745 106.66,15.9922851 L106.66,25.2022851 L101.66,25.2022851 L101.74,14.3222851 Z" id="Path" fill="#EE3425"></path>
            <path d="M118.81,20.8422851 C120.125581,21.5525712 121.586107,21.952762 123.08,22.0122851 C124.59,22.0122851 125.21,21.5222851 125.21,20.7122851 C125.21,19.9022851 124.72,19.4722851 122.89,18.8422851 C119.56,17.7722851 118.29,15.9422851 118.32,14.0822851 C118.32,11.0822851 120.87,8.82228506 124.82,8.82228506 C126.361873,8.80496022 127.88844,9.1293984 129.29,9.77228506 L128.44,13.1622851 C127.363486,12.6232342 126.183244,12.3230569 124.98,12.2822851 C123.78,12.2822851 123.08,12.7722851 123.08,13.5622851 C123.08,14.3522851 123.71,14.7322851 125.67,15.4222851 C128.67,16.4222851 129.95,18.0022851 129.98,20.3222851 C129.98,23.3222851 127.66,25.5122851 123.08,25.5122851 C121.296282,25.5442085 119.530703,25.149953 117.93,24.3622851 L118.81,20.8422851 Z" id="Path" fill="#EE3425"></path>
            <path d="M37.32,9.18228506 L39.74,17.0022851 C40,17.9422851 40.33,19.1122851 40.52,20.0022851 L40.62,20.0022851 C40.85,19.1522851 41.11,18.0022851 41.33,17.0022851 L43.33,9.18228506 L48.64,9.18228506 L44.93,19.6722851 C42.65,25.9922851 41.11,28.5022851 39.32,30.0922851 C37.987595,31.2991089 36.3144101,32.0640933 34.53,32.2822851 L33.53,28.1122851 C34.2840426,27.9345475 35.00827,27.6482251 35.68,27.2622851 C36.505723,26.7763187 37.1940336,26.088008 37.68,25.2622851 C37.8306073,25.0541895 37.9206038,24.8084297 37.94,24.5522851 C37.9315762,24.2690688 37.8669939,23.9903448 37.75,23.7322851 L31.88,9.17228506 L37.32,9.18228506 Z" id="Path" fill="#EE3425"></path>
            <path d="M48.09,33.5622851 C48.0953432,33.925643 47.9561042,34.2762373 47.7029218,34.5369214 C47.4497394,34.7976054 47.103359,34.9470193 46.74,34.9522851 L46.63,34.9522851 C46.2665881,34.9657906 45.9127176,34.8342523 45.6463615,34.5866537 C45.3800055,34.3390551 45.2230215,33.9957146 45.21,33.6322851 L45.21,33.5622851 C45.1992327,33.2041993 45.3312371,32.8565174 45.5769428,32.5958067 C45.8226486,32.3350961 46.1619049,32.182738 46.52,32.1722851 L46.65,32.1722851 C47.0056189,32.1447504 47.3575409,32.2601321 47.6278243,32.4928762 C47.8981078,32.7256203 48.0644462,33.0565183 48.09,33.4122851 L48.09,33.5622851 Z M45.22,43.9122851 L45.22,35.7722851 L48.09,35.7722851 L48.09,43.9122851 L45.22,43.9122851 Z" id="Shape" fill="#818285"></path>
            <path d="M50,38.4922851 C50,37.4922851 50,36.5522851 49.93,35.7722851 L52.37,35.7722851 L52.48,36.7722851 L52.48,36.7722851 C53.0072846,36.0339061 53.862754,35.6005678 54.77,35.6122851 C55.6583743,35.5426461 56.4962043,36.0333751 56.87,36.8422851 L56.87,36.8422851 C57.137809,36.4739496 57.4781139,36.1642721 57.87,35.9322851 C58.28808,35.7206654 58.7514818,35.6142546 59.22,35.6222851 C60.93,35.6222851 61.8,36.8922851 61.8,39.0622851 L61.8,43.9422851 L59.07,43.9422851 L59.07,39.5122851 C59.07,38.5122851 58.84,37.9422851 58.22,37.9422851 C57.8351864,37.9507373 57.5016641,38.2110474 57.4,38.5822851 C57.3401389,38.7697896 57.3097767,38.9654571 57.31,39.1622851 L57.31,43.9422851 L54.52,43.9422851 L54.52,39.3422851 C54.52,38.5622851 54.32,37.9422851 53.69,37.9422851 C53.3165301,37.9556528 52.9901782,38.1984268 52.87,38.5522851 C52.8020424,38.7414917 52.7681846,38.9412526 52.77,39.1422851 L52.77,43.9422851 L50,43.9422851 L50,38.4922851 Z" id="Path" fill="#818285"></path>
            <path d="M63.57,38.4922851 C63.57,37.4922851 63.57,36.5522851 63.5,35.7722851 L65.93,35.7722851 L66.05,36.7722851 L66.05,36.7722851 C66.5729509,36.0341517 67.4254683,35.6004148 68.33,35.6122851 C69.2302644,35.5232765 70.087093,36.0180649 70.46,36.8422851 L70.46,36.8422851 C70.727809,36.4739496 71.0681139,36.1642721 71.46,35.9322851 C71.8816329,35.7206005 72.3482799,35.6142324 72.82,35.6222851 C74.52,35.6222851 75.4,36.8922851 75.4,39.0622851 L75.4,43.9422851 L72.6,43.9422851 L72.6,39.5122851 C72.6,38.5122851 72.37,37.9422851 71.76,37.9422851 C71.3737355,37.9528192 71.038398,38.2113927 70.93,38.5822851 C70.8781853,38.7713088 70.851291,38.9662925 70.85,39.1622851 L70.85,43.9422851 L68.12,43.9422851 L68.12,39.3422851 C68.12,38.5622851 67.92,37.9422851 67.29,37.9422851 C66.9147668,37.9571661 66.5862417,38.1986122 66.46,38.5522851 C66.3920424,38.7414917 66.3581846,38.9412526 66.36,39.1422851 L66.36,43.9422851 L63.57,43.9422851 L63.57,38.4922851 Z" id="Path" fill="#818285"></path>
            <path d="M79.56,40.8422851 C79.64,41.5222851 80.49,41.9222851 81.56,41.9222851 C82.2379157,41.922835 82.9120805,41.8217103 83.56,41.6222851 L83.93,43.5622851 C83.0082536,43.8848848 82.0363963,44.0406529 81.06,44.0222851 C78.37,44.0222851 76.85,42.5022851 76.85,39.9222851 C76.85,37.7722851 78.15,35.5722851 80.85,35.5722851 C83.24,35.5722851 84.38,37.2922851 84.38,39.6722851 C84.3864721,40.0646686 84.3529659,40.4566911 84.28,40.8422851 L79.56,40.8422851 Z M81.74,38.9322851 C81.74,38.3722851 81.54,37.5122851 80.74,37.5122851 C79.94,37.5122851 79.62,38.3522851 79.58,38.9322851 L81.74,38.9322851 Z" id="Shape" fill="#818285"></path>
            <path d="M93.5,32.2522851 L93.5,41.3322851 C93.5,42.3322851 93.5,43.2822851 93.57,43.9122851 L91.05,43.9122851 L90.94,42.9122851 L90.94,42.9122851 C90.4632827,43.6807356 89.6139501,44.1377755 88.71,44.1122851 C86.83,44.1122851 85.52,42.3422851 85.52,39.9222851 C85.52,37.1622851 87.09,35.6422851 88.86,35.6422851 C89.5531975,35.5676659 90.2352253,35.8594223 90.66,36.4122851 L90.66,36.4122851 L90.66,32.2822851 L93.5,32.2522851 Z M90.66,39.1822851 C90.6799761,39.0463484 90.6799761,38.9082218 90.66,38.7722851 C90.623177,38.2475096 90.1860642,37.8409947 89.66,37.842282 C88.77,37.842282 88.39,38.7522851 88.39,39.842282 C88.39,41.1422851 88.93,41.7722851 89.64,41.7722851 C90.1258642,41.7811214 90.5477509,41.4393933 90.64,40.9622851 C90.6884612,40.7898549 90.7120328,40.6113842 90.71,40.4322851 L90.66,39.1822851 Z" id="Shape" fill="#818285"></path>
            <path d="M97.92,33.5622851 C97.9253432,33.925643 97.7861042,34.2762373 97.5329218,34.5369214 C97.2797394,34.7976054 96.933359,34.9470193 96.57,34.9522851 L96.46,34.9522851 C96.089861,34.9768726 95.7255728,34.8503113 95.4504073,34.6015315 C95.1752418,34.3527518 95.0127227,34.0030215 95,33.6322851 L95,33.5622851 C94.9892327,33.2041993 95.1212371,32.8565174 95.3669428,32.5958067 C95.6126486,32.3350961 95.9519049,32.182738 96.31,32.1722851 L96.44,32.1722851 C96.7956189,32.1447504 97.1475409,32.2601321 97.4178243,32.4928762 C97.6881078,32.7256203 97.8544462,33.0565183 97.88,33.4122851 L97.92,33.5622851 Z M95.06,43.9122851 L95.06,35.7722851 L97.92,35.7722851 L97.92,43.9122851 L95.06,43.9122851 Z" id="Shape" fill="#818285"></path>
            <path d="M104.15,43.9122851 L104,43.1822851 L104,43.1822851 C103.465234,43.7925659 102.680345,44.1242093 101.87,44.0822851 C100.502163,44.121628 99.3588947,43.0498141 99.31,41.6822851 L99.31,41.5322851 C99.31,39.3522851 101.31,38.4022851 103.77,38.4022851 L103.77,38.3022851 C103.77,37.9422851 103.46,37.5822851 102.52,37.5822851 C101.763012,37.5837509 101.019146,37.780049 100.36,38.1522851 L99.87,36.3222851 C100.861397,35.8343253 101.955231,35.59087 103.06,35.6122851 C105.87,35.6122851 106.63,37.2922851 106.63,39.2022851 L106.63,41.9622851 C106.608171,42.6319848 106.655083,43.3021576 106.77,43.9622851 L104.15,43.9122851 Z M103.8,40.1622851 C102.73,40.1622851 102.02,40.4922851 102.02,41.2522851 C101.979283,41.6635249 102.278896,42.0302158 102.69,42.0722851 L102.83,42.0722851 C103.25103,42.0721059 103.62685,41.8082325 103.77,41.4122851 C103.789921,41.2830482 103.789921,41.1515219 103.77,41.0222851 L103.8,40.1622851 Z" id="Shape" fill="#818285"></path>
            <path d="M111.33,33.4922851 L111.33,35.7722851 L113,35.7722851 L113,37.8422851 L111.33,37.8422851 L111.33,40.4422851 C111.33,41.4422851 111.61,41.7422851 112.24,41.7422851 C112.461357,41.7421757 112.682252,41.7220943 112.9,41.6822851 L112.9,43.8422851 C112.349936,43.9935929 111.780187,44.0610189 111.21,44.0422851 C110.504219,44.0652585 109.815503,43.8226021 109.28,43.3622851 C108.688075,42.6719722 108.41243,41.7652447 108.52,40.8622851 L108.52,37.8422851 L107.52,37.8422851 L107.52,35.8422851 L108.52,35.8422851 L108.52,34.1622851 L111.33,33.4922851 Z" id="Path" fill="#818285"></path>
            <path d="M116.79,40.8422851 C116.87,41.5222851 117.71,41.9222851 118.79,41.9222851 C119.467916,41.922835 120.142081,41.8217103 120.79,41.6222851 L121.15,43.5622851 C120.231519,43.8841264 119.263077,44.0398897 118.29,44.0222851 C115.6,44.0222851 114.07,42.5022851 114.07,39.9222851 C114.07,37.7722851 115.38,35.5722851 118.07,35.5722851 C120.45,35.5722851 121.59,37.2922851 121.59,39.6722851 C121.596472,40.0646686 121.562966,40.4566911 121.49,40.8422851 L116.79,40.8422851 Z M119,38.9322851 C119,38.3722851 118.8,37.5122851 118,37.5122851 C117.2,37.5122851 116.87,38.3522851 116.84,38.9322851 L119,38.9322851 Z" id="Shape" fill="#818285"></path>
            <path d="M132.1,43.7622851 C131.458002,43.9866464 130.779571,44.088411 130.1,44.0622851 C128.011807,44.2181409 126.18555,42.6680492 126,40.5822851 C125.980014,40.362739 125.980014,40.1418311 126,39.9222851 C125.951324,38.8183128 126.347091,37.7408785 127.098804,36.9309081 C127.850517,36.1209377 128.895469,35.645996 130,35.6122851 C130.183027,35.5972996 130.366973,35.5972996 130.55,35.6122851 C131.122672,35.6105489 131.692358,35.6948219 132.24,35.8622851 L131.84,38.0022851 C131.483055,37.86496 131.102264,37.8003615 130.72,37.8122851 C130.251486,37.8015682 129.798044,37.9781464 129.460163,38.3028877 C129.122281,38.6276291 128.927866,39.0737141 128.92,39.5422851 C128.91001,39.6320079 128.91001,39.7225623 128.92,39.8122851 C128.866776,40.291289 129.006786,40.7717399 129.309002,41.1471637 C129.611218,41.5225874 130.050681,41.7619786 130.53,41.8122851 L130.76,41.8122851 C131.14938,41.820248 131.536584,41.7523173 131.9,41.6122851 L132.1,43.7622851 Z" id="Path" fill="#818285"></path>
            <path d="M138.22,43.9122851 L138.07,43.1822851 L138.07,43.1822851 C137.535234,43.7925659 136.750345,44.1242093 135.94,44.0822851 C134.572163,44.121628 133.428895,43.0498141 133.38,41.6822851 L133.38,41.5322851 C133.38,39.3522851 135.38,38.4022851 137.84,38.4022851 L137.84,38.3022851 C137.84,37.9422851 137.53,37.5822851 136.58,37.5822851 C135.826985,37.5898083 135.08784,37.7857678 134.43,38.1522851 L133.94,36.3222851 C134.931397,35.8343253 136.025231,35.59087 137.13,35.6122851 C139.94,35.6122851 140.7,37.2922851 140.7,39.2022851 L140.7,41.9622851 C140.678171,42.6319848 140.725083,43.3021576 140.84,43.9622851 L138.22,43.9122851 Z M137.87,40.1622851 C136.8,40.1622851 136.09,40.4922851 136.09,41.2522851 C136.049283,41.6635249 136.348896,42.0302158 136.76,42.0722851 L136.9,42.0722851 C137.32103,42.0721059 137.69685,41.8082325 137.84,41.4122851 C137.86008,41.2830604 137.86008,41.1515097 137.84,41.0222851 L137.87,40.1622851 Z" id="Shape" fill="#818285"></path>
            <path d="M142.44,38.4722851 C142.44,37.3122851 142.44,36.4722851 142.37,35.7722851 L144.82,35.7722851 L144.93,37.1522851 L145,37.1522851 C145.271444,36.2659423 146.073719,35.6481907 147,35.6122851 C147.188847,35.5826771 147.381153,35.5826771 147.57,35.6122851 L147.57,38.3222851 C147.343966,38.2693862 147.112053,38.2458588 146.88,38.2522851 C146.202824,38.1837869 145.57121,38.6020742 145.37,39.2522851 C145.330218,39.4531844 145.310123,39.6574847 145.31,39.8622851 L145.31,43.8622851 L142.44,43.8622851 L142.44,38.4722851 Z" id="Path" fill="#818285"></path>
            <path d="M150.79,40.8422851 C150.87,41.5222851 151.72,41.9222851 152.79,41.9222851 C153.468247,41.9274089 154.143106,41.8261802 154.79,41.6222851 L155.16,43.5622851 C154.238254,43.8848848 153.266396,44.0406529 152.29,44.0222851 C149.6,44.0222851 148.08,42.5022851 148.08,39.9222851 C148.08,37.7722851 149.38,35.5722851 152.08,35.5722851 C154.47,35.5722851 155.61,37.2922851 155.61,39.6722851 C155.616472,40.0646686 155.582966,40.4566911 155.51,40.8422851 L150.79,40.8422851 Z M153,38.9322851 C153,38.3722851 152.8,37.5122851 152,37.5122851 C151.2,37.5122851 150.88,38.3522851 150.84,38.9322851 L153,38.9322851 Z" id="Shape" fill="#818285"></path>
        </g>
    </g>
</svg>